<svg width="14" height="16" viewBox="0 0 14 16" fill="none" xmlns="http://www.w3.org/2000/svg">
<path d="M4.75 8.24L1.75 4.81C1.58922 4.6277 1.50035 4.39307 1.5 4.15V2C1.5 1.73478 1.60536 1.48043 1.79289 1.29289C1.98043 1.10536 2.23478 1 2.5 1H11.5C11.7652 1 12.0196 1.10536 12.2071 1.29289C12.3946 1.48043 12.5 1.73478 12.5 2V4.15C12.4997 4.39307 12.4108 4.6277 12.25 4.81L9.25 8.24C9.08922 8.4223 9.00035 8.65693 9 8.9V12.47C9 12.6252 8.96386 12.7784 8.89443 12.9172C8.825 13.0561 8.7242 13.1769 8.6 13.27L6.6 14.77C6.45347 14.88 6.27953 14.9477 6.09716 14.9656C5.9148 14.9834 5.73103 14.9509 5.56591 14.8714C5.4008 14.792 5.26069 14.6687 5.16089 14.515C5.06109 14.3613 5.00544 14.1832 5 14V8.9C4.99965 8.65693 4.91078 8.4223 4.75 8.24Z"  stroke="#172176" stroke-width="1.5" stroke-linecap="round" stroke-linejoin="round"/>
</svg>
