<svg width="65" height="59" viewBox="0 0 65 59" fill="none" xmlns="http://www.w3.org/2000/svg">
<path d="M18.0556 51.1668C15.1667 51.1668 12.2778 48.639 10.8333 47.5556C3.61111 42.5001 1.44444 40.6945 0 39.6112V54.7779C0 56.7719 1.6171 58.389 3.61111 58.389H32.5C34.494 58.389 36.1111 56.7719 36.1111 54.7779V39.6112C34.6667 40.6945 32.5 42.5001 25.2778 47.5556C23.8333 48.639 20.9444 51.1668 18.0556 51.1668ZM32.5 29.5001H3.61111C1.6171 29.5001 0 31.1172 0 33.1112V34.9168C2.88889 37.0834 2.52778 37.0834 13 44.6668C14.0833 45.389 16.25 47.5556 18.0556 47.5556C19.8611 47.5556 22.0278 45.389 23.1111 45.0279C33.5833 37.4445 33.2222 37.4445 36.1111 35.2779V33.1112C36.1111 31.1172 34.494 29.5001 32.5 29.5001ZM61.3889 18.6668H25.2778C23.2838 18.6668 21.6667 20.2839 21.6667 22.2779V25.889H32.5C36.2477 25.889 39.3374 28.7576 39.6895 32.4138L39.7222 32.389V47.5556H61.3889C63.3829 47.5556 65 45.9385 65 43.9445V22.2779C65 20.2839 63.3829 18.6668 61.3889 18.6668ZM57.7778 33.1112H50.5556V25.889H57.7778V33.1112ZM18.0556 22.2779C18.0556 18.2955 21.2954 15.0556 25.2778 15.0556H50.5556V4.22232C50.5556 2.22831 48.9385 0.611206 46.9444 0.611206H10.8333C8.83932 0.611206 7.22222 2.22831 7.22222 4.22232V25.889H18.0556V22.2779Z" fill="#091156"/>
</svg>
